<svg xmlns="http://www.w3.org/2000/svg" viewBox="0 0 128 128" role="img" aria-label="Calendar icon">
  <rect width="128" height="128" rx="24" fill="#f2f2f2"/>
  <rect x="22" y="24" width="72" height="80" rx="10" fill="#121212"/>
  <rect x="22" y="24" width="72" height="20" rx="10" fill="#1a1a1a"/>
  <circle cx="36" cy="24" r="7" fill="#f2f2f2"/>
  <circle cx="58" cy="24" r="7" fill="#f2f2f2"/>
  <circle cx="80" cy="24" r="7" fill="#f2f2f2"/>
  <rect x="30" y="50" width="56" height="46" rx="6" fill="#ffffff"/>
  <g fill="#1c1c1c">
    <rect x="34" y="54" width="10" height="10" rx="2"/>
    <rect x="49" y="54" width="10" height="10" rx="2"/>
    <rect x="64" y="54" width="10" height="10" rx="2"/>
    <rect x="34" y="69" width="10" height="10" rx="2"/>
    <rect x="49" y="69" width="10" height="10" rx="2"/>
    <rect x="64" y="69" width="10" height="10" rx="2"/>
    <rect x="34" y="84" width="10" height="8" rx="2"/>
    <rect x="49" y="84" width="10" height="8" rx="2"/>
    <rect x="64" y="84" width="10" height="8" rx="2"/>
  </g>
  <circle cx="88" cy="92" r="20" fill="#ffffff" stroke="#121212" stroke-width="5"/>
  <path d="M79 92l7 7 11-13" fill="none" stroke="#121212" stroke-width="6" stroke-linecap="round" stroke-linejoin="round"/>
</svg>
